# xmcd
#
# Track frame offsets:
#	150
#	11820
#	27080
#	37687
#	46748
#	58906
#	71826
#	83778
#	96739
#	110147
#	120493
#	130988
#	142999
#	154571
#	166202
#	178395
#	188964
#	201880
#	213844
#	225154
#
# Disc length: 3124 seconds
#
# Revision: 1
# Processed by: cddbd v1.5.2PL0 Copyright (c) Steve Scherf et al.
# Submitted via: audiograbber 1.82.02
#
DISCID=140c3214
DTITLE=Jim Reeves - Just For You
DYEAR=1984
DGENRE=Country
TTITLE0=Jim Reeves - Welcome To My World
TTITLE1=Jim Reeves - Blue Side Of Lonesome
TTITLE2=Jim Reeves - He'll Have To Go
TTITLE3=Jim Reeves - I Won't Forget You
TTITLE4=Jim Reeves - Teardrops On The Rocks
TTITLE5=Jim Reeves - Four Walls
TTITLE6=Jim Reeves - The One That Got Away
TTITLE7=Jim Reeves - Distant Drums
TTITLE8=Jim Reeves - Old Tige
TTITLE9=Jim Reeves - Is It Really Over
TTITLE10=Jim Reeves - In A Mansion Stands My Love
TTITLE11=Jim Reeves - Mexican Joe
TTITLE12=Jim Reeves - Younder Comes A Sucker
TTITLE13=Jim Reeves - I'm Glad Your Better
TTITLE14=Jim Reeves - I've Lived A Lot In My Time
TTITLE15=Jim Reeves - Am I Losing You
TTITLE16=Jim Reeves - Almost
TTITLE17=Jim Reeves - Blue Without My Baby
TTITLE18=Jim Reeves - Look Behind You (Take 6)
TTITLE19=Jim Reeves - Pickin' A Chicken
EXTD=
EXTT0=
EXTT1=
EXTT2=
EXTT3=
EXTT4=
EXTT5=
EXTT6=
EXTT7=
EXTT8=
EXTT9=
EXTT10=
EXTT11=
EXTT12=
EXTT13=
EXTT14=
EXTT15=
EXTT16=
EXTT17=
EXTT18=
EXTT19=
PLAYORDER=
